<?xml version="1.0" encoding="iso-8859-1"?>
<!-- Generator: Adobe Illustrator 19.1.0, SVG Export Plug-In . SVG Version: 6.00 Build 0)  -->
<svg version="1.1" id="Capa_1" xmlns="http://www.w3.org/2000/svg" xmlns:xlink="http://www.w3.org/1999/xlink" x="0px" y="0px"
	 viewBox="0 0 297.667 297.667" style="enable-background:new 0 0 297.667 297.667;" xml:space="preserve">
<g>
	<polygon style="fill:none;" points="25.825,167.361 31.841,161.392 110.699,239.896 31.841,161.298 	"/>
	<polygon style="fill:none;" points="19.809,173.424 86.319,239.896 19.855,173.377 	"/>
	<polygon style="fill:none;" points="41.856,239.896 63.343,239.896 52.611,229.141 	"/>
	<polygon style="fill:#FFB929;" points="132.975,239.896 281.667,239.896 281.667,222.896 115.938,222.896 	"/>
	<path d="M290,206.896H156.667v-76h86.579c2.177,0,4.261-0.7,5.769-2.27c1.509-1.57,2.312-3.594,2.225-5.769
		c-1.058-26.456-12.329-51.066-31.432-69.469c-17.227-16.595-39.14-26.479-63.14-28.305v-9.188c0-4.418-3.582-8-8-8
		c-4.418,0-8,3.582-8,8v9.188c-23,1.825-45.58,11.711-62.807,28.305c-19.104,18.402-30.125,43.106-31.182,69.562
		c-0.088,2.175,0.758,4.104,2.266,5.675c1.508,1.569,3.633,2.27,5.81,2.27h85.913v76H99.904l-62.419-62.287
		c-3.124-3.116-8.184-3.116-11.308,0.006L2.844,167.949c-3.121,3.122-3.124,8.183-0.006,11.308l38.472,38.558l-22.082,22.082H8
		c-4.418,0-8,3.582-8,8s3.582,8,8,8h31.227L19.01,276.114c-3.124,3.125-3.124,8.189,0,11.314c1.562,1.562,3.609,2.343,5.657,2.343
		c2.048,0,4.095-0.781,5.657-2.343l31.532-31.532h173.621l31.532,31.532c1.562,1.562,3.609,2.343,5.657,2.343
		c2.048,0,4.095-0.781,5.657-2.343c3.124-3.125,3.124-8.189,0-11.314l-20.218-20.218H290c4.418,0,7.667-3.582,7.667-8v-33
		C297.667,210.478,294.418,206.896,290,206.896z M156.667,41.144c20,1.787,37.812,9.876,52.039,23.581
		c14.097,13.578,23.197,31.171,25.813,50.171h-77.852V41.144z M63.479,114.896c2.616-19,11.383-36.592,25.48-50.171
		c14.228-13.705,32.707-21.794,51.708-23.581v73.752H63.479z M41.856,239.896l10.755-10.755l10.731,10.755H41.856z M86.319,239.896
		l-66.511-66.472l0.047-0.047l-0.047-0.047l6.017-5.97l6.016-6.062l78.858,78.598H86.319z M281.667,239.896H132.975l-17.036-17
		h165.729V239.896z"/>
	<polygon style="fill:#B4EBDD;" points="25.825,167.361 19.809,173.331 19.855,173.377 86.319,239.896 110.699,239.896 
		31.841,161.392 	"/>
	<path style="fill:#C52D2F;" d="M208.706,64.725c-14.227-13.705-32.039-21.794-52.039-23.581v73.752h77.852
		C231.903,95.896,222.803,78.303,208.706,64.725z"/>
	<path style="fill:#FFFFFF;" d="M140.667,41.144c-19,1.787-37.479,9.876-51.708,23.581c-14.097,13.579-22.864,31.171-25.48,50.171
		h77.188V41.144z"/>
</g>
<g>
</g>
<g>
</g>
<g>
</g>
<g>
</g>
<g>
</g>
<g>
</g>
<g>
</g>
<g>
</g>
<g>
</g>
<g>
</g>
<g>
</g>
<g>
</g>
<g>
</g>
<g>
</g>
<g>
</g>
</svg>
